<svg xmlns="http://www.w3.org/2000/svg" viewBox="0 0 512 512">
  <path d="M307.472 227.964c-30.728 0-44.514 17.222-49.939 27.339-.681 1.27-2.53 1.269-3.21-.003-5.406-10.117-19.116-27.336-49.843-27.336-35.002 0-65.792 23.893-65.792 67.524 0 17.655 3.598 32.78 13.584 49.661 20.349 34.399 87.389 78.993 101.161 87.779 1.523.972 3.451.973 4.975.006 13.782-8.745 80.834-53.118 101.344-87.787 9.986-16.88 13.559-32.006 13.559-49.661 0-43.632-30.831-67.524-65.831-67.524z" fill="#D51C39"/>
  <path d="M325.712 512H110.539c-28.484 0-51.66-23.174-51.66-51.66V225.285c0-17.428 8.743-33.474 23.387-42.922l132.998-85.806c24.746-15.967 56.726-15.967 81.472 0l132.997 85.806c14.645 9.448 23.388 25.493 23.388 42.922v256.394c0 8.158-6.615 14.772-14.772 14.772s-14.772-6.613-14.772-14.772V225.285c0-7.347-3.686-14.113-9.862-18.097l-132.994-85.806c-15.018-9.689-34.424-9.69-49.442 0L98.283 207.188c-6.175 3.984-9.86 10.749-9.86 18.097v235.056c0 12.196 9.921 22.116 22.116 22.116h215.173c8.157 0 14.772 6.613 14.772 14.772S333.869 512 325.712 512z" fill="#D51C39"/>
  <path d="M486.919 172.984c-2.844 0-5.715-.818-8.25-2.529L281.505 37.411c-15.493-10.455-35.516-10.455-51.008 0L33.333 170.455c-6.76 4.563-15.943 2.782-20.508-3.981s-2.782-15.945 3.981-20.508L213.97 12.921c25.533-17.228 58.527-17.228 84.06 0l197.164 133.044c6.762 4.563 8.545 13.745 3.981 20.508-4.563 6.764-15.102 4.511-15.102 4.511z" fill="#D51C39"/>
</svg>
