<svg width="1024" height="1024" xmlns="http://www.w3.org/2000/svg">

 <g>
  <title>Layer 1</title>
  <path id="svg_6" d="m347.767,523.174l13.689,0.033c-0.246,11.707 -0.367,23.417 -0.363,35.127c-0.019,7.322 -0.223,15.502 0.398,22.714l202.668,-0.064c0.014,4.556 -0.045,9.113 -0.175,13.667c-71.48,-0.938 -144.741,-0.16 -216.277,-0.126c0.65,-22.662 0.464,-48.591 0.06,-71.351z" fill="#272425"/>
  <path id="svg_7" d="m347.804,262.584c6.494,0.674 21.493,0.297 28.559,0.3l53.863,-0.011l79.05,0.018c17.932,0.069 37.305,0.485 55.146,-0.148c-0.406,3.432 -0.217,9.949 -0.054,13.445c-17.728,-0.838 -43.246,-0.168 -61.493,-0.191l-141.411,0.056c-0.679,16.514 -0.234,33.074 -0.367,49.599c-0.029,3.528 -0.003,7.053 0.225,10.576c-4.006,-0.202 -9.797,-0.18 -13.695,0.2c0.635,-9.07 0.339,-20.953 0.332,-30.224c0.043,-14.54 -0.009,-29.081 -0.155,-43.62z" fill="#272425"/>
  <path id="svg_9" d="m664.174,448.451c4.636,-0.007 9.271,0.019 13.907,0.077c-1.018,38.505 0.159,77.49 -0.348,116.032c-0.127,9.724 -0.208,20.177 0.276,29.868c-20.877,-0.207 -41.756,-0.28 -62.634,-0.218c-4.659,-0.03 -9.318,0.075 -13.971,0.314c-0.149,-4.517 -0.138,-9.038 0.033,-13.554c20.278,0.498 42.704,0.126 63.052,0.023c-0.644,-43.85 0.028,-88.535 -0.315,-132.542z" fill="#272425"/>
  <path id="svg_10" d="m601.26,262.705c7.033,0.582 18.09,0.297 25.288,0.302l51.459,-0.087c-0.446,48.543 -0.956,100.061 -0.191,148.552c-4.549,-0.072 -8.67,-0.132 -13.232,0.067c0.762,-12.644 -0.051,-34.092 -0.051,-47.555c0.001,-29.036 0.334,-58.767 -0.122,-87.747c-5.686,-0.5 -16.465,-0.219 -22.402,-0.217l-40.874,0.028c-0.034,-4.415 -0.146,-8.946 0.125,-13.343z" fill="#272425"/>
  <path id="svg_11" d="m513.876,425.018c24.382,0.695 52.034,0.051 76.654,0.039l152.588,0.075c0,2.819 0.142,6.488 -0.297,9.2c-7.633,-0.798 -26.46,-0.279 -35.073,-0.271l-70.681,0.046l-80.63,-0.042c-11.888,-0.001 -31.824,-0.612 -42.784,0.513c0.191,-3.183 0.266,-6.372 0.223,-9.56z" fill="#272425"/>
  <path id="svg_12" d="m578.29,191.969l9.299,0.039l0.106,159.607l-0.088,40.173c-0.002,3.698 0.232,16.165 -0.342,19.194l-0.889,0.262c-2.956,-0.128 -5.018,0.044 -7.934,0.262c-0.583,-6.817 -0.246,-17.821 -0.239,-24.983l0.052,-45.756l0.035,-148.798z" fill="#272425"/>
  <path id="svg_13" d="m578.207,448.514l9.418,-0.018l0.045,127.144c0.156,20.926 0.179,41.853 0.069,62.779c-3.48,-0.396 -5.75,-0.233 -9.245,-0.076c-0.635,-55.454 0.249,-111.063 -0.153,-166.531c-0.056,-7.723 0.166,-15.595 -0.134,-23.298z" fill="#272425"/>
  <path id="svg_15" d="m285.377,350.225c3.725,0.345 11.341,0.119 15.343,0.107c9.197,-0.037 18.395,-0.026 27.592,0.034l100.113,0.09l-0.185,8.726c-0.33,0.209 -0.66,0.418 -0.99,0.627c-10.909,0.068 -25.293,-0.029 -35.932,-0.054l-105.861,0.146c-0.164,-3.322 -0.121,-6.355 -0.08,-9.676z" fill="#272425"/>
  <path id="svg_16" d="m285.24,500c46.845,-0.03 96.329,0.776 142.932,-0.227c-0.025,2.589 0.069,6.72 -0.385,9.101l-0.696,0.28c-47.283,-0.334 -94.567,-0.223 -141.848,0.333l-0.003,-9.487z" fill="#272425"/>
  <path id="svg_17" d="m285.492,425.174l142.539,0.173l-0.042,6.278c0.086,1.243 0.045,1.221 -0.26,2.445c-3.278,0.732 -23.982,-0.011 -28.554,-0.012l-74.006,-0.013c-10.332,-0.008 -30.221,-0.57 -39.665,0.395l-0.012,-9.266z" fill="#272425"/>
  <path id="svg_19" d="m347.894,373.496l13.56,0.015c-0.964,8.973 -0.37,28.065 -0.316,37.629c-3.984,-0.222 -9.419,-0.232 -13.303,0.404c0.563,-11.193 0.214,-26.649 0.059,-38.048z" fill="#272425"/>
  <path id="svg_20" d="m348.002,448.821c3.523,0.384 9.446,0.187 13.159,0.173c-0.235,12.037 -0.05,24.645 -0.023,36.723c-4.178,-0.18 -8.945,-0.081 -13.168,-0.092l0.032,-36.804z" fill="#272425"/>
 </g>
</svg>